<svg width="376" height="56" viewBox="0 0 376 56" fill="none" xmlns="http://www.w3.org/2000/svg">
<path d="M128.02 55.1576H94.6533L111.337 27.1274L95.6748 0H127.234L143.55 28.2598L128.02 55.1576Z" fill="#38BDF8"/>
<path d="M111.334 27.1261L106.959 34.4713L128.023 55.1555L111.334 27.1261Z" fill="#236D8E"/>
<path d="M1.21741 35.9382V13.2639H7.54794V21.7402H15.0959V13.2639H21.4264V35.9382H15.0959V27.0968H7.54794V35.9382H1.21741ZM30.1918 13.2639V35.9382H23.8612V13.2639H30.1918ZM32.6266 35.9382V13.2639H38.9571V30.5816H48.7268V35.9382H32.6266ZM58.0553 36.3034C55.4784 36.3034 53.495 35.6491 52.1052 34.3404C50.7153 33.0316 50.0203 31.1599 50.0203 28.725V26.9294H55.8639V28.7859C55.8639 30.3077 56.5589 31.0686 57.9487 31.0686C59.3386 31.0686 60.0335 30.3077 60.0335 28.7859V13.2639H66.3641V28.9077C66.3641 31.2816 65.6438 33.1077 64.2032 34.386C62.7727 35.6643 60.7234 36.3034 58.0553 36.3034ZM66.0749 35.9382L73.6838 13.2639H82.2056L89.8905 35.9382H82.7687L81.6882 32.2099H74.1099L72.999 35.9382H66.0749ZM75.5707 27.3402H80.2882L80.2273 27.1424C79.8317 25.7728 79.4462 24.4185 79.0708 23.0793C78.6954 21.7402 78.3251 20.3807 77.9599 19.001C77.5845 20.3807 77.2041 21.7402 76.8186 23.0793C76.4331 24.4185 76.0374 25.7728 75.6316 27.1424L75.5707 27.3402Z" fill="white"/>
<path d="M38.4879 45.8146V38.3832H39.8046V44.6725H43.251V45.8146H38.4879ZM47.0165 45.9343C46.3515 45.9343 45.758 45.7764 45.236 45.4605C44.7173 45.1413 44.3067 44.6957 44.0041 44.1238C43.7048 43.5486 43.5552 42.8753 43.5552 42.1039C43.5552 41.3292 43.7048 40.6542 44.0041 40.079C44.3067 39.5038 44.7173 39.0582 45.236 38.7423C45.758 38.4231 46.3515 38.2635 47.0165 38.2635C47.6782 38.2635 48.27 38.4231 48.7921 38.7423C49.3141 39.0582 49.7247 39.5038 50.024 40.079C50.3266 40.6542 50.4778 41.3292 50.4778 42.1039C50.4778 42.8753 50.3266 43.5486 50.024 44.1238C49.7247 44.6991 49.3141 45.1446 48.7921 45.4605C48.27 45.7764 47.6782 45.9343 47.0165 45.9343ZM47.0165 44.7523C47.4222 44.7523 47.7846 44.6492 48.1038 44.443C48.4263 44.2369 48.6807 43.9376 48.8669 43.5453C49.0531 43.1496 49.1462 42.6692 49.1462 42.1039C49.1462 41.5353 49.0531 41.0532 48.8669 40.6575C48.6807 40.2619 48.4263 39.9609 48.1038 39.7548C47.7846 39.5486 47.4222 39.4456 47.0165 39.4456C46.6109 39.4456 46.2468 39.5486 45.9243 39.7548C45.6051 39.9609 45.3507 40.2619 45.1612 40.6575C44.975 41.0532 44.8819 41.5353 44.8819 42.1039C44.8819 42.6692 44.975 43.1496 45.1612 43.5453C45.3507 43.9376 45.6051 44.2369 45.9243 44.443C46.2468 44.6492 46.6109 44.7523 47.0165 44.7523ZM54.6823 45.9343C53.9973 45.9343 53.3922 45.773 52.8668 45.4505C52.3415 45.128 51.9309 44.6791 51.6349 44.1039C51.3423 43.5287 51.196 42.862 51.196 42.1039C51.196 41.3259 51.3457 40.6492 51.6449 40.074C51.9475 39.4988 52.3598 39.0532 52.8818 38.7373C53.4072 38.4215 54.0023 38.2635 54.6673 38.2635C55.2226 38.2635 55.7297 38.3733 56.1885 38.5927C56.6474 38.8088 57.0247 39.1114 57.3207 39.5004C57.6199 39.8861 57.8061 40.335 57.8793 40.8471H56.5376C56.4445 40.4281 56.2334 40.0906 55.9042 39.8346C55.5784 39.5752 55.1777 39.4456 54.7022 39.4456C54.2567 39.4456 53.871 39.5553 53.5451 39.7747C53.2193 39.9942 52.9666 40.3034 52.787 40.7024C52.6108 41.0981 52.5227 41.5653 52.5227 42.1039C52.5227 42.6392 52.6125 43.1064 52.792 43.5054C52.9716 43.9011 53.2243 44.2086 53.5501 44.4281C53.8793 44.6442 54.2667 44.7523 54.7122 44.7523C55.078 44.7523 55.4038 44.6791 55.6898 44.5328C55.979 44.3832 56.2068 44.1754 56.373 43.9094C56.5393 43.6434 56.6241 43.3358 56.6274 42.9867H54.9017V41.9443H57.9291V42.842C57.9291 43.4439 57.7878 43.9775 57.5052 44.443C57.2259 44.9085 56.8419 45.2743 56.3531 45.5403C55.8643 45.803 55.3074 45.9343 54.6823 45.9343ZM60.2733 38.3832V45.8146H58.9566V38.3832H60.2733ZM64.1984 45.9343C63.2774 45.9343 62.5559 45.7099 62.0338 45.261C61.5151 44.8088 61.2558 44.1853 61.2558 43.3907H62.5476C62.5542 43.8395 62.7022 44.1903 62.9914 44.443C63.284 44.6957 63.6897 44.8221 64.2084 44.8221C64.6706 44.8221 65.043 44.7257 65.3256 44.5328C65.6082 44.3366 65.7495 44.0756 65.7495 43.7498C65.7495 43.4871 65.6431 43.2743 65.4303 43.1114C65.2175 42.9451 64.8634 42.8055 64.368 42.6924L63.57 42.5129C62.8285 42.3433 62.2816 42.0923 61.9291 41.7598C61.5767 41.4273 61.4004 41 61.4004 40.478C61.4004 40.0358 61.5135 39.6484 61.7396 39.3159C61.969 38.9834 62.2882 38.7257 62.6972 38.5428C63.1095 38.3566 63.5883 38.2635 64.1336 38.2635C64.9648 38.2635 65.6232 38.4747 66.1086 38.8969C66.5974 39.3192 66.8518 39.8994 66.8717 40.6376H65.6198C65.5932 40.2452 65.4469 39.9377 65.1809 39.7149C64.9149 39.4921 64.5642 39.3807 64.1286 39.3807C63.7163 39.3807 63.3788 39.4772 63.1161 39.67C62.8535 39.8629 62.7221 40.1106 62.7221 40.4131C62.7221 40.6625 62.8252 40.8653 63.0313 41.0216C63.2408 41.1746 63.5883 41.3059 64.0737 41.4156L64.8268 41.5902C65.5982 41.7598 66.1635 42.0125 66.5226 42.3483C66.8817 42.6841 67.0612 43.1247 67.0612 43.67C67.0612 44.1321 66.9449 44.5328 66.7121 44.872C66.4794 45.2111 66.1485 45.4738 65.7196 45.66C65.2907 45.8429 64.7836 45.9343 64.1984 45.9343ZM67.6547 39.5254V38.3832H73.5948V39.5254H71.2906V45.8146H69.9689V39.5254H67.6547ZM75.7644 38.3832V45.8146H74.4477V38.3832H75.7644ZM80.2432 45.9343C79.5582 45.9343 78.9531 45.7764 78.4277 45.4605C77.9024 45.1446 77.4901 44.6991 77.1908 44.1238C76.8916 43.5486 76.7419 42.8753 76.7419 42.1039C76.7419 41.3259 76.8916 40.6492 77.1908 40.074C77.4901 39.4988 77.9024 39.0532 78.4277 38.7373C78.9531 38.4215 79.5582 38.2635 80.2432 38.2635C80.8018 38.2635 81.3071 38.3733 81.7593 38.5927C82.2115 38.8122 82.5839 39.1214 82.8765 39.5204C83.1725 39.9194 83.362 40.3899 83.4451 40.9318H82.1035C82.0037 40.4597 81.7893 40.0939 81.4601 39.8346C81.1309 39.5752 80.7286 39.4456 80.2531 39.4456C79.8009 39.4456 79.4102 39.5553 79.0811 39.7747C78.7552 39.9942 78.5042 40.3034 78.328 40.7024C78.1551 41.1014 78.0686 41.5686 78.0686 42.1039C78.0686 42.6359 78.1551 43.1014 78.328 43.5004C78.5042 43.8961 78.7552 44.2036 79.0811 44.4231C79.4069 44.6425 79.7976 44.7523 80.2531 44.7523C80.7253 44.7523 81.1259 44.6242 81.4551 44.3682C81.7843 44.1122 82.0021 43.7481 82.1085 43.276H83.4451C83.362 43.8179 83.1725 44.2884 82.8765 44.6874C82.5839 45.0831 82.2115 45.3907 81.7593 45.6101C81.3071 45.8262 80.8018 45.9343 80.2432 45.9343ZM87.091 45.9343C86.1699 45.9343 85.4484 45.7099 84.9264 45.261C84.4077 44.8088 84.1484 44.1853 84.1484 43.3907H85.4401C85.4468 43.8395 85.5947 44.1903 85.884 44.443C86.1766 44.6957 86.5822 44.8221 87.1009 44.8221C87.5631 44.8221 87.9355 44.7257 88.2181 44.5328C88.5008 44.3366 88.6421 44.0756 88.6421 43.7498C88.6421 43.4871 88.5357 43.2743 88.3229 43.1114C88.1101 42.9451 87.756 42.8055 87.2605 42.6924L86.4625 42.5129C85.7211 42.3433 85.1741 42.0923 84.8217 41.7598C84.4692 41.4273 84.293 41 84.293 40.478C84.293 40.0358 84.406 39.6484 84.6321 39.3159C84.8616 38.9834 85.1808 38.7257 85.5897 38.5428C86.002 38.3566 86.4808 38.2635 87.0261 38.2635C87.8574 38.2635 88.5157 38.4747 89.0012 38.8969C89.49 39.3192 89.7443 39.8994 89.7643 40.6376H88.5124C88.4858 40.2452 88.3395 39.9377 88.0735 39.7149C87.8075 39.4921 87.4567 39.3807 87.0211 39.3807C86.6088 39.3807 86.2714 39.4772 86.0087 39.67C85.746 39.8629 85.6147 40.1106 85.6147 40.4131C85.6147 40.6625 85.7177 40.8653 85.9239 41.0216C86.1334 41.1746 86.4808 41.3059 86.9663 41.4156L87.7194 41.5902C88.4908 41.7598 89.056 42.0125 89.4151 42.3483C89.7742 42.6841 89.9538 43.1247 89.9538 43.67C89.9538 44.1321 89.8374 44.5328 89.6047 44.872C89.3719 45.2111 89.0411 45.4738 88.6122 45.66C88.1832 45.8429 87.6762 45.9343 87.091 45.9343Z" fill="white"/>
<g clip-path="url(#clip0_16_218)">
<path fill-rule="evenodd" clip-rule="evenodd" d="M226.771 30.3646V40.0435C226.771 40.4897 226.412 40.852 225.97 40.852H222.196C222.09 40.8516 221.986 40.8304 221.888 40.7895C221.79 40.7487 221.702 40.689 221.627 40.614C221.553 40.5389 221.494 40.4499 221.454 40.352C221.414 40.2541 221.393 40.1493 221.394 40.0435V19.4731C221.391 18.1931 221.897 16.9645 222.8 16.0574C223.703 15.1504 224.93 14.639 226.21 14.6359H238.453C238.898 14.6359 239.257 14.9967 239.257 15.4428V18.8712C239.257 19.3159 238.898 19.6767 238.453 19.6767H227.976C227.818 19.6771 227.661 19.7087 227.515 19.7697C227.369 19.8307 227.236 19.9199 227.124 20.0322C227.012 20.1446 226.924 20.2778 226.863 20.4244C226.803 20.5709 226.772 20.7279 226.773 20.8864V25.3238H236.848C237.292 25.3238 237.651 25.6846 237.651 26.1308V29.5592C237.651 30.0038 237.292 30.3661 236.848 30.3661H226.773L226.771 30.3646ZM245.515 40.8505H241.862C241.757 40.8503 241.652 40.8293 241.554 40.7886C241.457 40.7479 241.368 40.6884 241.294 40.6134C241.219 40.5385 241.16 40.4496 241.12 40.3518C241.08 40.254 241.059 40.1492 241.06 40.0435V27.5411C241.06 22.7413 243.949 20.2007 249.409 20.2007C250.023 20.2026 250.636 20.2617 251.239 20.3773C251.424 20.4123 251.592 20.5111 251.712 20.6566C251.832 20.802 251.898 20.985 251.897 21.1738V24.4899C251.897 24.9855 251.459 25.3643 250.972 25.2849C250.455 25.2009 249.933 25.1594 249.409 25.1606C246.961 25.1606 246.319 25.9691 246.319 27.9453V40.0435C246.319 40.4897 245.96 40.852 245.515 40.852M264.142 32.6223H260.009C258.122 32.6223 257.158 33.3484 257.158 34.841C257.319 36.7768 258.603 36.9789 260.572 36.9385C262.618 36.9789 263.942 36.7364 264.142 34.5581V32.6223ZM269.361 34.841C269.361 39.1977 266.711 41.3356 260.651 41.3356C254.589 41.3356 251.939 39.1977 251.939 34.9623C251.939 30.7674 254.669 28.6699 260.088 28.6699H264.142V27.1368C264.142 25.2011 262.738 24.6771 259.968 24.6771C258.051 24.6771 256.477 24.8268 255.211 25.1412C255.093 25.1691 254.97 25.1699 254.852 25.1434C254.734 25.1169 254.623 25.0638 254.528 24.9882C254.434 24.9126 254.358 24.8165 254.306 24.7071C254.254 24.5976 254.227 24.4778 254.228 24.3567V21.5167C254.228 21.3411 254.285 21.1702 254.39 21.0297C254.495 20.8893 254.644 20.7869 254.812 20.7381C256.067 20.3788 257.679 20.1992 259.648 20.1992C265.949 20.1992 269.361 22.1365 269.361 27.1368V34.841ZM272.493 40.0435V15.4413C272.493 14.9952 272.853 14.6329 273.296 14.6329H276.91C277.353 14.6329 277.712 14.9952 277.712 15.4413V40.0435C277.712 40.4897 277.353 40.852 276.91 40.852H273.296C273.19 40.8516 273.085 40.8304 272.988 40.7895C272.89 40.7487 272.802 40.689 272.727 40.614C272.653 40.5389 272.594 40.4499 272.554 40.352C272.513 40.2541 272.493 40.1493 272.493 40.0435ZM285.681 20.6843H290.102C290.255 20.6856 290.404 20.7299 290.532 20.8121C290.66 20.8943 290.762 21.011 290.827 21.1488C290.892 21.2867 290.916 21.44 290.898 21.5911C290.879 21.7423 290.818 21.8851 290.722 22.0032L285.098 28.872C284.577 29.4364 284.334 29.8796 284.334 30.203C284.334 30.4844 284.577 30.9291 285.059 31.4935L291.544 39.536C291.64 39.6542 291.7 39.7969 291.718 39.9479C291.736 40.0988 291.711 40.2517 291.646 40.3891C291.581 40.5264 291.478 40.6426 291.35 40.7242C291.222 40.8059 291.073 40.8496 290.921 40.8505H286.487C286.367 40.8503 286.248 40.8231 286.14 40.7707C286.031 40.7183 285.936 40.6422 285.861 40.5481L280.642 33.9937C279.599 32.7031 279.076 31.3737 279.076 30.0413C279.076 28.7103 279.477 27.9034 280.642 26.4512L285.059 20.9822C285.134 20.8889 285.228 20.8137 285.336 20.7618C285.444 20.71 285.562 20.6845 285.681 20.6843ZM331.019 32.6223H326.884C324.997 32.6223 324.033 33.3484 324.033 34.841C324.195 36.7768 325.48 36.9789 327.447 36.9385C329.493 36.9789 330.818 36.7364 331.019 34.5581V32.6223ZM336.238 34.841C336.238 39.1977 333.588 41.3356 327.526 41.3356C321.464 41.3356 318.816 39.1977 318.816 34.9623C318.816 30.7674 321.545 28.6699 326.965 28.6699H331.019V27.1368C331.019 25.2011 329.615 24.6771 326.843 24.6771C324.927 24.6771 323.354 24.8268 322.086 25.1412C321.968 25.1691 321.845 25.1699 321.727 25.1434C321.609 25.1169 321.498 25.0638 321.403 24.9882C321.309 24.9126 321.232 24.8165 321.181 24.7071C321.129 24.5976 321.102 24.4778 321.103 24.3567V21.5167C321.103 21.3411 321.16 21.1702 321.265 21.0297C321.37 20.8893 321.519 20.7869 321.687 20.7381C322.943 20.3788 324.554 20.1992 326.523 20.1992C332.826 20.1992 336.238 22.1365 336.238 27.1368V34.841ZM339.37 40.0435V15.4413C339.37 14.9952 339.729 14.6329 340.172 14.6329H343.785C344.228 14.6329 344.587 14.9952 344.587 15.4413V40.0435C344.587 40.4897 344.228 40.852 343.785 40.852H340.172C340.066 40.8516 339.962 40.8304 339.864 40.7895C339.767 40.7487 339.678 40.689 339.604 40.614C339.529 40.5389 339.47 40.4499 339.43 40.352C339.39 40.2541 339.369 40.1493 339.37 40.0435ZM352.558 20.6843H356.977C357.13 20.6853 357.279 20.7294 357.407 20.8115C357.536 20.8936 357.638 21.0103 357.703 21.1482C357.768 21.286 357.793 21.4395 357.774 21.5908C357.756 21.7421 357.695 21.885 357.599 22.0032L351.974 28.872C351.452 29.4364 351.211 29.8796 351.211 30.203C351.211 30.4844 351.452 30.9291 351.934 31.4935L358.421 39.536C358.516 39.6542 358.577 39.7969 358.595 39.9479C358.613 40.0988 358.588 40.2517 358.523 40.3891C358.457 40.5264 358.355 40.6426 358.227 40.7242C358.099 40.8059 357.95 40.8496 357.798 40.8505H353.363C353.243 40.8506 353.124 40.8234 353.015 40.771C352.907 40.7187 352.811 40.6424 352.736 40.5481L347.519 33.9937C346.475 32.7031 345.953 31.3737 345.953 30.0413C345.953 28.7103 346.354 27.9034 347.519 26.4512L351.935 20.9822C352.01 20.8889 352.105 20.8137 352.213 20.7618C352.32 20.71 352.438 20.6845 352.558 20.6843ZM370.155 36.3337C368.469 36.3337 367.625 35.4459 367.625 33.6314V25.6442H373.648C373.861 25.6434 374.065 25.5582 374.216 25.4072C374.366 25.2563 374.45 25.0519 374.45 24.8388V21.4912C374.451 21.3854 374.43 21.2806 374.39 21.1827C374.35 21.0849 374.291 20.9959 374.217 20.9208C374.142 20.8457 374.053 20.786 373.956 20.7452C373.858 20.7044 373.754 20.6831 373.648 20.6828H367.626V15.4413C367.627 15.3358 367.606 15.2312 367.566 15.1336C367.526 15.0359 367.467 14.9472 367.392 14.8724C367.318 14.7976 367.229 14.7382 367.132 14.6976C367.034 14.6571 366.93 14.6361 366.824 14.6359H363.21C363.104 14.6361 363 14.6571 362.902 14.6976C362.805 14.7382 362.716 14.7976 362.642 14.8724C362.567 14.9472 362.508 15.0359 362.468 15.1336C362.428 15.2312 362.407 15.3358 362.408 15.4413V20.6857H360.045C359.832 20.6865 359.627 20.772 359.477 20.9232C359.326 21.0745 359.242 21.2793 359.243 21.4927V24.8373C359.243 25.2819 359.602 25.6427 360.045 25.6427H362.411V33.5894C362.411 38.7111 364.978 41.2921 370.157 41.2921C371.868 41.2921 373.337 41.0796 374.615 40.6514C374.778 40.5981 374.919 40.4949 375.02 40.3565C375.12 40.2181 375.175 40.0514 375.175 39.8804V36.6121C375.176 36.4889 375.149 36.3671 375.095 36.2562C375.042 36.1453 374.963 36.0483 374.865 35.9729C374.768 35.8975 374.654 35.8457 374.533 35.8215C374.413 35.7973 374.288 35.8015 374.169 35.8336C373.009 36.166 371.666 36.3322 370.157 36.3322M303.28 36.3337C301.594 36.3337 300.75 35.4459 300.75 33.6314V25.6442H306.773C306.879 25.644 306.983 25.623 307.08 25.5824C307.178 25.5419 307.266 25.4825 307.341 25.4077C307.416 25.3329 307.475 25.2442 307.515 25.1465C307.555 25.0489 307.576 24.9443 307.575 24.8388V21.4912C307.576 21.3854 307.556 21.2805 307.516 21.1825C307.476 21.0845 307.417 20.9955 307.342 20.9203C307.268 20.8452 307.179 20.7856 307.081 20.7448C306.984 20.704 306.879 20.6829 306.773 20.6828H300.752L300.743 15.4398C300.743 15.2267 300.658 15.0223 300.508 14.8713C300.357 14.7204 300.153 14.6352 299.94 14.6344H296.335C296.229 14.6346 296.125 14.6556 296.027 14.6961C295.93 14.7367 295.841 14.7961 295.767 14.8709C295.692 14.9457 295.633 15.0344 295.593 15.1321C295.553 15.2297 295.532 15.3343 295.533 15.4398V20.6843H293.167C292.954 20.685 292.749 20.7705 292.599 20.9217C292.449 21.073 292.364 21.2778 292.365 21.4912V24.8373C292.365 25.2819 292.724 25.6427 293.169 25.6427H295.533V33.5894C295.533 38.7111 298.102 41.2921 303.28 41.2921C304.991 41.2921 306.459 41.0796 307.737 40.6514C307.9 40.5979 308.041 40.4947 308.142 40.3563C308.242 40.2179 308.296 40.0514 308.297 39.8804V36.6121C308.298 36.4889 308.271 36.3671 308.217 36.2562C308.164 36.1453 308.085 36.0483 307.987 35.9729C307.89 35.8975 307.776 35.8457 307.656 35.8215C307.535 35.7973 307.41 35.8015 307.291 35.8336C306.132 36.166 304.788 36.3322 303.279 36.3322M315.871 20.6723H311.655C311.522 20.6731 311.395 20.7264 311.301 20.8207C311.208 20.9149 311.155 21.0424 311.155 21.1753V41.6455C311.155 43.7025 310.631 44.3478 309.388 44.3478C309.029 44.3478 308.7 44.3178 308.4 44.2624C308.098 44.204 307.822 44.4511 307.822 44.7595V48.5442C307.822 48.7718 307.972 48.9664 308.189 49.0323C308.827 49.2239 309.553 49.3077 310.392 49.3077C314.044 49.3077 316.373 47.2118 316.373 42.8147V21.1753C316.373 21.0422 316.32 20.9144 316.226 20.8201C316.132 20.7258 316.004 20.6727 315.871 20.6723ZM311.929 14.2526C312.167 14.0062 312.452 13.8102 312.767 13.6764C313.082 13.5425 313.421 13.4735 313.763 13.4735C314.105 13.4735 314.444 13.5425 314.759 13.6764C315.074 13.8102 315.359 14.0062 315.597 14.2526C316.63 15.2916 316.63 16.8995 315.597 17.9385C314.564 18.9775 312.962 18.9775 311.929 17.9385C311.684 17.6984 311.489 17.4117 311.355 17.0953C311.222 16.7788 311.154 16.4389 311.154 16.0956C311.154 15.7522 311.222 15.4123 311.355 15.0959C311.489 14.7794 311.684 14.4927 311.929 14.2526Z" fill="white"/>
<mask id="mask0_16_218" style="mask-type:luminance" maskUnits="userSpaceOnUse" x="180" y="14" width="22" height="8">
<path d="M184.139 14.573C183.222 14.5754 182.344 14.9418 181.697 15.5917C181.05 16.2417 180.688 17.1219 180.69 18.0388C180.688 18.9555 181.051 19.8353 181.698 20.485C182.344 21.1346 183.223 21.5008 184.139 21.5032H197.935C198.852 21.5008 199.73 21.1346 200.377 20.485C201.024 19.8353 201.386 18.9555 201.385 18.0388C201.387 17.1221 201.025 16.2422 200.378 15.5923C199.732 14.9424 198.853 14.5758 197.937 14.573H184.139Z" fill="white"/>
</mask>
<g mask="url(#mask0_16_218)">
<path fill-rule="evenodd" clip-rule="evenodd" d="M184.139 14.573C183.222 14.5754 182.344 14.9418 181.697 15.5917C181.05 16.2417 180.688 17.1219 180.69 18.0388C180.688 18.9555 181.051 19.8353 181.698 20.485C182.344 21.1346 183.223 21.5008 184.139 21.5032H197.935C198.852 21.5008 199.73 21.1346 200.377 20.485C201.024 19.8353 201.386 18.9555 201.385 18.0388C201.387 17.1221 201.025 16.2422 200.378 15.5923C199.732 14.9424 198.853 14.5758 197.937 14.573H184.139Z" fill="url(#paint0_linear_16_218)"/>
</g>
<path fill-rule="evenodd" clip-rule="evenodd" d="M206.559 14.573C205.642 14.5754 204.763 14.9418 204.116 15.5917C203.47 16.2417 203.107 17.1219 203.109 18.0388C203.107 18.9558 203.47 19.836 204.116 20.4859C204.763 21.1358 205.642 21.5023 206.559 21.5047C207.476 21.5023 208.354 21.1358 209.001 20.4859C209.648 19.836 210.01 18.9558 210.008 18.0388C210.01 17.1219 209.648 16.2417 209.001 15.5917C208.354 14.9418 207.476 14.5754 206.559 14.573Z" fill="white"/>
<mask id="mask1_16_218" style="mask-type:luminance" maskUnits="userSpaceOnUse" x="180" y="24" width="22" height="8">
<path d="M184.139 24.2773C183.222 24.2797 182.344 24.6462 181.697 25.2961C181.05 25.946 180.688 26.8262 180.69 27.7432C180.688 28.6601 181.05 29.5403 181.697 30.1903C182.344 30.8402 183.222 31.2066 184.139 31.209H197.935C198.852 31.2066 199.731 30.8402 200.378 30.1903C201.024 29.5403 201.387 28.6601 201.385 27.7432C201.387 26.8265 201.025 25.9465 200.378 25.2966C199.732 24.6467 198.853 24.2801 197.937 24.2773H184.139Z" fill="white"/>
</mask>
<g mask="url(#mask1_16_218)">
<path fill-rule="evenodd" clip-rule="evenodd" d="M184.139 24.2773C183.222 24.2797 182.344 24.6462 181.697 25.2961C181.05 25.946 180.688 26.8262 180.69 27.7432C180.688 28.6601 181.05 29.5403 181.697 30.1903C182.344 30.8402 183.222 31.2066 184.139 31.209H197.935C198.852 31.2066 199.731 30.8402 200.378 30.1903C201.024 29.5403 201.387 28.6601 201.385 27.7432C201.387 26.8265 201.025 25.9465 200.378 25.2966C199.732 24.6467 198.853 24.2801 197.937 24.2773H184.139Z" fill="url(#paint1_linear_16_218)"/>
</g>
<path fill-rule="evenodd" clip-rule="evenodd" d="M206.559 24.2773C205.642 24.2797 204.763 24.6462 204.116 25.2961C203.469 25.946 203.107 26.8262 203.109 27.7432C203.108 28.6599 203.47 29.5397 204.117 30.1893C204.764 30.8389 205.642 31.2051 206.559 31.2075C207.475 31.2051 208.354 30.8389 209 30.1893C209.647 29.5397 210.01 28.6599 210.008 27.7432C210.01 26.8262 209.648 25.946 209.001 25.2961C208.354 24.6462 207.476 24.2797 206.559 24.2773ZM206.559 33.9802H192.763C191.846 33.9826 190.967 34.349 190.32 34.9989C189.674 35.6489 189.311 36.5291 189.313 37.446C189.312 38.3627 189.674 39.2426 190.321 39.8922C190.968 40.5418 191.846 40.908 192.763 40.9104H206.559C207.475 40.908 208.354 40.5418 209 39.8922C209.647 39.2426 210.01 38.3627 210.008 37.446C210.01 36.5291 209.648 35.6489 209.001 34.9989C208.354 34.349 207.476 33.9826 206.559 33.9802Z" fill="white"/>
<mask id="mask2_16_218" style="mask-type:luminance" maskUnits="userSpaceOnUse" x="180" y="33" width="8" height="8">
<path d="M180.69 37.446C180.688 38.3627 181.051 39.2426 181.698 39.8922C182.344 40.5418 183.223 40.908 184.139 40.9104C185.056 40.908 185.934 40.5418 186.581 39.8922C187.228 39.2426 187.59 38.3627 187.589 37.446C187.591 36.5291 187.228 35.6489 186.582 34.9989C185.935 34.349 185.056 33.9826 184.139 33.9802C183.222 33.9826 182.344 34.349 181.697 34.9989C181.05 35.6489 180.688 36.5291 180.69 37.446" fill="white"/>
</mask>
<g mask="url(#mask2_16_218)">
<path fill-rule="evenodd" clip-rule="evenodd" d="M180.69 37.446C180.688 38.3627 181.051 39.2426 181.698 39.8922C182.344 40.5418 183.223 40.908 184.139 40.9104C185.056 40.908 185.934 40.5418 186.581 39.8922C187.228 39.2426 187.59 38.3627 187.589 37.446C187.591 36.5291 187.228 35.6489 186.582 34.9989C185.935 34.349 185.056 33.9826 184.139 33.9802C183.222 33.9826 182.344 34.349 181.697 34.9989C181.05 35.6489 180.688 36.5291 180.69 37.446Z" fill="url(#paint2_linear_16_218)"/>
</g>
</g>
<defs>
<linearGradient id="paint0_linear_16_218" x1="1215.43" y1="6.07659" x2="1215.43" y2="2646.17" gradientUnits="userSpaceOnUse">
<stop stop-color="#00B5D1"/>
<stop offset="1" stop-color="#0089B5"/>
</linearGradient>
<linearGradient id="paint1_linear_16_218" x1="1215.43" y1="-954.593" x2="1215.43" y2="1685.94" gradientUnits="userSpaceOnUse">
<stop stop-color="#00B5D1"/>
<stop offset="1" stop-color="#0089B5"/>
</linearGradient>
<linearGradient id="paint2_linear_16_218" x1="525.635" y1="-1915.01" x2="525.635" y2="725.085" gradientUnits="userSpaceOnUse">
<stop stop-color="#00B5D1"/>
<stop offset="1" stop-color="#0089B5"/>
</linearGradient>
<clipPath id="clip0_16_218">
<rect width="194.626" height="35.9309" fill="white" transform="translate(180.69 13.4741)"/>
</clipPath>
</defs>
</svg>
