<svg width="376" height="56" viewBox="0 0 376 56" fill="none" xmlns="http://www.w3.org/2000/svg">
<path d="M244.02 55.1576H210.653L227.337 27.1274L211.675 0H243.234L259.55 28.2598L244.02 55.1576Z" fill="#38BDF8"/>
<path d="M227.334 27.1261L222.959 34.4714L244.023 55.1555L227.334 27.1261Z" fill="#236D8E"/>
<path d="M117.218 35.9382V13.264H123.548V21.7402H131.096V13.264H137.427V35.9382H131.096V27.0968H123.548V35.9382H117.218ZM146.192 13.264V35.9382H139.861V13.264H146.192ZM148.627 35.9382V13.264H154.957V30.5816H164.727V35.9382H148.627ZM174.055 36.3035C171.479 36.3035 169.495 35.6491 168.105 34.3404C166.715 33.0317 166.02 31.1599 166.02 28.7251V26.9294H171.864V28.7859C171.864 30.3077 172.559 31.0686 173.949 31.0686C175.339 31.0686 176.034 30.3077 176.034 28.7859V13.264H182.364V28.9077C182.364 31.2816 181.644 33.1078 180.203 34.386C178.773 35.6643 176.724 36.3035 174.055 36.3035ZM182.075 35.9382L189.684 13.264H198.206L205.891 35.9382H198.769L197.688 32.2099H190.11L188.999 35.9382H182.075ZM191.571 27.3403H196.288L196.227 27.1424C195.832 25.7729 195.446 24.4185 195.071 23.0793C194.696 21.7402 194.325 20.3807 193.96 19.001C193.585 20.3807 193.204 21.7402 192.819 23.0793C192.433 24.4185 192.038 25.7729 191.632 27.1424L191.571 27.3403Z" fill="white"/>
<path d="M154.488 45.8146V38.3832H155.805V44.6724H159.251V45.8146H154.488ZM163.016 45.9343C162.351 45.9343 161.758 45.7763 161.236 45.4605C160.717 45.1413 160.307 44.6957 160.004 44.1238C159.705 43.5486 159.555 42.8753 159.555 42.1039C159.555 41.3292 159.705 40.6542 160.004 40.079C160.307 39.5037 160.717 39.0582 161.236 38.7423C161.758 38.4231 162.351 38.2635 163.016 38.2635C163.678 38.2635 164.27 38.4231 164.792 38.7423C165.314 39.0582 165.725 39.5037 166.024 40.079C166.326 40.6542 166.478 41.3292 166.478 42.1039C166.478 42.8753 166.326 43.5486 166.024 44.1238C165.725 44.699 165.314 45.1446 164.792 45.4605C164.27 45.7763 163.678 45.9343 163.016 45.9343ZM163.016 44.7522C163.422 44.7522 163.784 44.6492 164.104 44.443C164.426 44.2369 164.681 43.9376 164.867 43.5453C165.053 43.1496 165.146 42.6691 165.146 42.1039C165.146 41.5353 165.053 41.0532 164.867 40.6575C164.681 40.2618 164.426 39.9609 164.104 39.7548C163.784 39.5486 163.422 39.4456 163.016 39.4456C162.611 39.4456 162.247 39.5486 161.924 39.7548C161.605 39.9609 161.351 40.2618 161.161 40.6575C160.975 41.0532 160.882 41.5353 160.882 42.1039C160.882 42.6691 160.975 43.1496 161.161 43.5453C161.351 43.9376 161.605 44.2369 161.924 44.443C162.247 44.6492 162.611 44.7522 163.016 44.7522ZM170.682 45.9343C169.997 45.9343 169.392 45.773 168.867 45.4505C168.341 45.128 167.931 44.6791 167.635 44.1039C167.342 43.5286 167.196 42.862 167.196 42.1039C167.196 41.3258 167.346 40.6492 167.645 40.074C167.947 39.4988 168.36 39.0532 168.882 38.7373C169.407 38.4215 170.002 38.2635 170.667 38.2635C171.222 38.2635 171.73 38.3732 172.188 38.5927C172.647 38.8088 173.025 39.1114 173.321 39.5004C173.62 39.8861 173.806 40.335 173.879 40.847H172.538C172.444 40.4281 172.233 40.0906 171.904 39.8346C171.578 39.5752 171.178 39.4456 170.702 39.4456C170.257 39.4456 169.871 39.5553 169.545 39.7747C169.219 39.9942 168.966 40.3034 168.787 40.7024C168.611 41.0981 168.523 41.5652 168.523 42.1039C168.523 42.6392 168.612 43.1064 168.792 43.5054C168.971 43.901 169.224 44.2086 169.55 44.4281C169.879 44.6442 170.267 44.7522 170.712 44.7522C171.078 44.7522 171.404 44.6791 171.69 44.5328C171.979 44.3832 172.207 44.1754 172.373 43.9094C172.539 43.6434 172.624 43.3358 172.627 42.9867H170.902V41.9443H173.929V42.842C173.929 43.4439 173.788 43.9775 173.505 44.443C173.226 44.9085 172.842 45.2743 172.353 45.5403C171.864 45.8029 171.307 45.9343 170.682 45.9343ZM176.273 38.3832V45.8146H174.956V38.3832H176.273ZM180.198 45.9343C179.277 45.9343 178.556 45.7098 178.034 45.261C177.515 44.8088 177.256 44.1853 177.256 43.3907H178.547C178.554 43.8395 178.702 44.1903 178.991 44.443C179.284 44.6957 179.69 44.8221 180.208 44.8221C180.67 44.8221 181.043 44.7256 181.325 44.5328C181.608 44.3366 181.749 44.0756 181.749 43.7498C181.749 43.4871 181.643 43.2743 181.43 43.1114C181.217 42.9451 180.863 42.8055 180.368 42.6924L179.57 42.5129C178.828 42.3433 178.281 42.0922 177.929 41.7598C177.577 41.4273 177.4 41 177.4 40.478C177.4 40.0357 177.513 39.6484 177.739 39.3159C177.969 38.9834 178.288 38.7257 178.697 38.5428C179.109 38.3566 179.588 38.2635 180.133 38.2635C180.965 38.2635 181.623 38.4747 182.108 38.8969C182.597 39.3192 182.852 39.8994 182.872 40.6376H181.62C181.593 40.2452 181.447 39.9377 181.181 39.7149C180.915 39.4921 180.564 39.3807 180.128 39.3807C179.716 39.3807 179.379 39.4771 179.116 39.67C178.853 39.8628 178.722 40.1106 178.722 40.4131C178.722 40.6625 178.825 40.8653 179.031 41.0216C179.241 41.1746 179.588 41.3059 180.074 41.4156L180.827 41.5902C181.598 41.7598 182.163 42.0124 182.522 42.3483C182.882 42.6841 183.061 43.1247 183.061 43.67C183.061 44.1321 182.945 44.5328 182.712 44.8719C182.479 45.2111 182.148 45.4738 181.719 45.66C181.291 45.8428 180.783 45.9343 180.198 45.9343ZM183.655 39.5254V38.3832H189.595V39.5254H187.29V45.8146H185.969V39.5254H183.655ZM191.764 38.3832V45.8146H190.448V38.3832H191.764ZM196.243 45.9343C195.558 45.9343 194.953 45.7763 194.428 45.4605C193.902 45.1446 193.49 44.699 193.191 44.1238C192.891 43.5486 192.742 42.8753 192.742 42.1039C192.742 41.3258 192.891 40.6492 193.191 40.074C193.49 39.4988 193.902 39.0532 194.428 38.7373C194.953 38.4215 195.558 38.2635 196.243 38.2635C196.802 38.2635 197.307 38.3732 197.759 38.5927C198.211 38.8121 198.584 39.1214 198.876 39.5204C199.172 39.9194 199.362 40.3899 199.445 40.9318H198.103C198.004 40.4597 197.789 40.0939 197.46 39.8346C197.131 39.5752 196.728 39.4456 196.253 39.4456C195.801 39.4456 195.41 39.5553 195.081 39.7747C194.755 39.9942 194.504 40.3034 194.328 40.7024C194.155 41.1014 194.068 41.5686 194.068 42.1039C194.068 42.6359 194.155 43.1014 194.328 43.5004C194.504 43.8961 194.755 44.2036 195.081 44.4231C195.407 44.6425 195.797 44.7522 196.253 44.7522C196.725 44.7522 197.126 44.6242 197.455 44.3682C197.784 44.1122 198.002 43.7481 198.108 43.2759H199.445C199.362 43.8179 199.172 44.2884 198.876 44.6874C198.584 45.0831 198.211 45.3906 197.759 45.6101C197.307 45.8262 196.802 45.9343 196.243 45.9343ZM203.091 45.9343C202.17 45.9343 201.448 45.7098 200.926 45.261C200.408 44.8088 200.148 44.1853 200.148 43.3907H201.44C201.447 43.8395 201.595 44.1903 201.884 44.443C202.176 44.6957 202.582 44.8221 203.101 44.8221C203.563 44.8221 203.935 44.7256 204.218 44.5328C204.501 44.3366 204.642 44.0756 204.642 43.7498C204.642 43.4871 204.536 43.2743 204.323 43.1114C204.11 42.9451 203.756 42.8055 203.26 42.6924L202.462 42.5129C201.721 42.3433 201.174 42.0922 200.822 41.7598C200.469 41.4273 200.293 41 200.293 40.478C200.293 40.0357 200.406 39.6484 200.632 39.3159C200.861 38.9834 201.181 38.7257 201.59 38.5428C202.002 38.3566 202.481 38.2635 203.026 38.2635C203.857 38.2635 204.516 38.4747 205.001 38.8969C205.49 39.3192 205.744 39.8994 205.764 40.6376H204.512C204.486 40.2452 204.339 39.9377 204.073 39.7149C203.807 39.4921 203.457 39.3807 203.021 39.3807C202.609 39.3807 202.271 39.4771 202.009 39.67C201.746 39.8628 201.615 40.1106 201.615 40.4131C201.615 40.6625 201.718 40.8653 201.924 41.0216C202.133 41.1746 202.481 41.3059 202.966 41.4156L203.719 41.5902C204.491 41.7598 205.056 42.0124 205.415 42.3483C205.774 42.6841 205.954 43.1247 205.954 43.67C205.954 44.1321 205.837 44.5328 205.605 44.8719C205.372 45.2111 205.041 45.4738 204.612 45.66C204.183 45.8428 203.676 45.9343 203.091 45.9343Z" fill="white"/>
</svg>
